<svg xmlns="http://www.w3.org/2000/svg" xmlns:xlink="http://www.w3.org/1999/xlink" width="1000" height="1000" viewBox="0 0 1000 1000"><defs>
  <linearGradient id="gCream" x1="0" y1="0" x2="0" y2="1"><stop offset="0" stop-color="#F7EFDE"/><stop offset="1" stop-color="#F0E4C8"/></linearGradient>
  <linearGradient id="gEsp" x1="0" y1="0" x2="0" y2="1"><stop offset="0" stop-color="#33200F"/><stop offset="1" stop-color="#20140D"/></linearGradient>
  <linearGradient id="gClay" x1="0" y1="0" x2="1" y2="0"><stop offset="0" stop-color="#B5532E"/><stop offset="1" stop-color="#8C3F20"/></linearGradient>
  <linearGradient id="gGold" x1="0" y1="0" x2="1" y2="0"><stop offset="0" stop-color="#E7C56B"/><stop offset="1" stop-color="#C9962E"/></linearGradient>
  <linearGradient id="gGreen" x1="0" y1="0" x2="0" y2="1"><stop offset="0" stop-color="#3C5A38"/><stop offset="1" stop-color="#2A4128"/></linearGradient>
  <linearGradient id="gScrim" x1="0" y1="0" x2="0" y2="1"><stop offset="0" stop-color="#20140D" stop-opacity="0"/><stop offset="1" stop-color="#20140D" stop-opacity="0.8"/></linearGradient>
  <filter id="soft" x="-40%" y="-40%" width="180%" height="180%"><feDropShadow dx="0" dy="6" stdDeviation="9" flood-color="#20140D" flood-opacity="0.30"/></filter>
  
</defs><rect width="1000" height="1000" fill="url(#gCream)"/><g opacity="0.08"><ellipse cx="940" cy="70" rx="60" ry="52" fill="none" stroke="#33200F" stroke-width="2"/><ellipse cx="940" cy="70" rx="90" ry="77" fill="none" stroke="#33200F" stroke-width="2"/><ellipse cx="940" cy="70" rx="120" ry="103" fill="none" stroke="#33200F" stroke-width="2"/><ellipse cx="940" cy="70" rx="150" ry="129" fill="none" stroke="#33200F" stroke-width="2"/><ellipse cx="940" cy="70" rx="180" ry="155" fill="none" stroke="#33200F" stroke-width="2"/><ellipse cx="940" cy="70" rx="210" ry="181" fill="none" stroke="#33200F" stroke-width="2"/><ellipse cx="940" cy="70" rx="240" ry="206" fill="none" stroke="#33200F" stroke-width="2"/></g><circle cx="120.0" cy="900.0" r="70" fill="none" stroke="#B5532E" stroke-width="11.2" opacity="0.1"/><g opacity="0.14"><path d="M 0,946 L 120,936 L 220,945 L 340,932 L 460,943 L 580,934 L 700,945 L 820,935 L 920,944 L 1000,939" fill="none" stroke="#3C5A38" stroke-width="2.4"/><path d="M 0,968 L 120,957 L 220,966 L 340,952 L 460,964 L 580,955 L 700,966 L 820,956 L 920,965 L 1000,960" fill="none" stroke="#3C5A38" stroke-width="2.4"/><path d="M 0,988 L 120,978 L 220,987 L 340,974 L 460,985 L 580,976 L 700,987 L 820,977 L 920,986 L 1000,981" fill="none" stroke="#3C5A38" stroke-width="2.4"/></g><line x1="176" y1="86" x2="326" y2="86" stroke="#C9962E" stroke-width="2"/><line x1="674" y1="86" x2="824" y2="86" stroke="#C9962E" stroke-width="2"/><text x="500.0" y="92.0" text-anchor="middle" font-family="Georgia,'Times New Roman',serif" font-weight="700" font-size="18.0" fill="#B5532E" letter-spacing="4" font-style="italic">COMITÉ DEPARTAMENTAL DE CAFETEROS</text><circle cx="500.0" cy="430" r="215" fill="#33200F"/><circle cx="500.0" cy="430" r="193.5" fill="none" stroke="#E7C56B" stroke-width="3.9"/><circle cx="500.0" cy="430" r="208.5" fill="none" stroke="#C9962E" stroke-width="6.5"/><defs><path id="sealtopMK" d="M 332.3,430.0 A 167.7,167.7 0 0 1 667.7,430.0"/></defs><text font-family="Georgia,'Times New Roman',serif" font-weight="700" font-size="29.0" fill="#E7C56B" letter-spacing="6.5"><textPath href="#sealtopMK" startOffset="50%" text-anchor="middle">COMPROMETIDOS CON LOS CAFETEROS</textPath></text><g transform="translate(338.3,433.0) rotate(-20.0)"><ellipse rx="15.1" ry="9.6" fill="#E7C56B"/><path d="M-10.5,-3.9 C -1.5,2.4 1.5,-2.4 10.5,3.9" stroke="#33200F" stroke-width="1.8" fill="none" opacity="0.7"/></g><g transform="translate(661.7,433.0) rotate(20.0)"><ellipse rx="15.1" ry="9.6" fill="#E7C56B"/><path d="M-10.5,-3.9 C -1.5,2.4 1.5,-2.4 10.5,3.9" stroke="#33200F" stroke-width="1.8" fill="none" opacity="0.7"/></g><g transform="translate(500.0,356.9) rotate(0.0)"><ellipse rx="27.9" ry="17.9" fill="#E7C56B"/><path d="M-19.6,-7.3 C -2.8,4.5 2.8,-4.5 19.6,7.3" stroke="#33200F" stroke-width="3.4" fill="none" opacity="0.7"/></g><text x="500.0" y="419.2" text-anchor="middle" font-family="'Helvetica Neue',Arial,sans-serif" font-weight="800" font-size="34.4" fill="#F7EFDE" letter-spacing="2">PLANCHA</text><text x="500.0" y="548.2" text-anchor="middle" font-family="'Arial Black','Helvetica Neue',Arial,sans-serif" font-weight="900" font-size="197.8" fill="#E7C56B">2</text><text x="500.0" y="602.0" text-anchor="middle" font-family="'Helvetica Neue',Arial,sans-serif" font-weight="700" font-size="16.1" fill="#E7C56B" letter-spacing="2">ELECCIONES CAFETERAS</text><text x="290.0" y="752.0" text-anchor="middle" font-family="Georgia,'Times New Roman',serif" font-weight="700" font-size="17.0" fill="#B5532E" letter-spacing="2" font-style="italic">CANDIDATO PRINCIPAL</text><text x="290.0" y="789.0" text-anchor="middle" font-family="'Arial Black','Helvetica Neue',Arial,sans-serif" font-weight="900" font-size="27.0" fill="#20140D">JHON ESNEIDER</text><text x="290.0" y="837.9" text-anchor="middle" font-family="'Arial Black','Helvetica Neue',Arial,sans-serif" font-weight="900" font-size="27.0" fill="#20140D">PRIETO PRIETO</text><text x="710.0" y="752.0" text-anchor="middle" font-family="Georgia,'Times New Roman',serif" font-weight="700" font-size="17.0" fill="#B5532E" letter-spacing="2" font-style="italic">SUPLENTE</text><text x="710.0" y="789.0" text-anchor="middle" font-family="'Arial Black','Helvetica Neue',Arial,sans-serif" font-weight="900" font-size="27.0" fill="#20140D">NELSON FERNED</text><text x="710.0" y="837.9" text-anchor="middle" font-family="'Arial Black','Helvetica Neue',Arial,sans-serif" font-weight="900" font-size="27.0" fill="#20140D">OROZCO CASTAÑO</text><text x="500.0" y="912.0" text-anchor="middle" font-family="Georgia,'Times New Roman',serif" font-weight="700" font-size="24.0" fill="#3C5A38" letter-spacing="1" font-style="italic">Por unos cafeteros prósperos</text></svg>