<svg xmlns="http://www.w3.org/2000/svg" xmlns:xlink="http://www.w3.org/1999/xlink" width="1050" height="600" viewBox="0 0 1050 600"><defs>
  <linearGradient id="gSky" x1="0" y1="0" x2="0" y2="1">
    <stop offset="0" stop-color="#FBF3E2"/><stop offset="1" stop-color="#F1E2C4"/></linearGradient>
  <linearGradient id="gGold" x1="0" y1="0" x2="1" y2="0">
    <stop offset="0" stop-color="#F6D488"/><stop offset="1" stop-color="#E3A53C"/></linearGradient>
  <linearGradient id="gGreen" x1="0" y1="0" x2="0" y2="1">
    <stop offset="0" stop-color="#2F7D34"/><stop offset="1" stop-color="#1C5A23"/></linearGradient>
  <linearGradient id="gRed" x1="0" y1="0" x2="1" y2="0">
    <stop offset="0" stop-color="#C32026"/><stop offset="1" stop-color="#8C161B"/></linearGradient>
  <linearGradient id="gBrown" x1="0" y1="0" x2="0" y2="1">
    <stop offset="0" stop-color="#43271A"/><stop offset="1" stop-color="#22130C"/></linearGradient>
  <radialGradient id="gBadge" cx="38%" cy="32%" r="80%">
    <stop offset="0" stop-color="#DA3A40"/><stop offset="60%" stop-color="#C32026"/>
    <stop offset="100%" stop-color="#8C161B"/></radialGradient>
  <radialGradient id="gSpot" cx="50%" cy="46%" r="62%">
    <stop offset="0" stop-color="#22130C" stop-opacity="0.86"/>
    <stop offset="55%" stop-color="#22130C" stop-opacity="0.5"/>
    <stop offset="100%" stop-color="#22130C" stop-opacity="0"/></radialGradient>
  <radialGradient id="gFeather" cx="50%" cy="44%" r="60%">
    <stop offset="0" stop-color="#fff"/><stop offset="60%" stop-color="#fff"/>
    <stop offset="100%" stop-color="#000"/></radialGradient>
  <linearGradient id="gVeil" x1="0" y1="0" x2="0" y2="1">
    <stop offset="0" stop-color="#22130C" stop-opacity="0.62"/>
    <stop offset="32%" stop-color="#22130C" stop-opacity="0.18"/>
    <stop offset="62%" stop-color="#22130C" stop-opacity="0.30"/>
    <stop offset="100%" stop-color="#22130C" stop-opacity="0.9"/></linearGradient>
  <filter id="duo" color-interpolation-filters="sRGB">
    <feColorMatrix type="matrix" values=".21 .72 .07 0 0 .21 .72 .07 0 0 .21 .72 .07 0 0 0 0 0 1 0"/>
    <feComponentTransfer>
      <feFuncR type="table" tableValues="0.13 0.62 0.97"/>
      <feFuncG type="table" tableValues="0.08 0.40 0.85"/>
      <feFuncB type="table" tableValues="0.05 0.19 0.56"/></feComponentTransfer>
  </filter>
  <filter id="soft" x="-40%" y="-40%" width="180%" height="180%">
    <feDropShadow dx="0" dy="6" stdDeviation="9" flood-color="#22130C" flood-opacity="0.4"/></filter>
  <filter id="txt" x="-25%" y="-25%" width="150%" height="150%">
    <feDropShadow dx="0" dy="2" stdDeviation="4" flood-color="#160c07" flood-opacity="0.75"/></filter>
  
</defs><rect width="1050" height="600" fill="url(#gBrown)"/><rect x="20" y="20" width="1010" height="560" rx="16" fill="none" stroke="#E3A53C" stroke-width="2"/><g transform="translate(1058.0,130.0) scale(-0.500,0.500) rotate(-10.0)" opacity="0.96"><path d="M0,0 C 70,-8 150,-28 250,-22" stroke="#43271A" stroke-width="7" fill="none" stroke-linecap="round"/><g transform="translate(55.0,-6.0) rotate(-38.0)"><path d="M0,0 C 19.6,-15.0 50.4,-15.0 70.0,0 C 50.4,15.0 19.6,15.0 0,0 Z" fill="#2F7D34"/><path d="M3.5,0 L63.0,0" stroke="#1C5A23" stroke-width="1.5" opacity="0.5"/></g><g transform="translate(55.0,-6.0) rotate(28.0)"><path d="M0,0 C 18.5,-14.0 47.5,-14.0 66.0,0 C 47.5,14.0 18.5,14.0 0,0 Z" fill="#2F7D34"/><path d="M3.3,0 L59.4,0" stroke="#1C5A23" stroke-width="1.4" opacity="0.5"/></g><g transform="translate(120.0,-20.0) rotate(-32.0)"><path d="M0,0 C 21.3,-16.5 54.7,-16.5 76.0,0 C 54.7,16.5 21.3,16.5 0,0 Z" fill="#2F7D34"/><path d="M3.8,0 L68.4,0" stroke="#1C5A23" stroke-width="1.7" opacity="0.5"/></g><g transform="translate(120.0,-20.0) rotate(34.0)"><path d="M0,0 C 19.6,-15.0 50.4,-15.0 70.0,0 C 50.4,15.0 19.6,15.0 0,0 Z" fill="#2F7D34"/><path d="M3.5,0 L63.0,0" stroke="#1C5A23" stroke-width="1.5" opacity="0.5"/></g><g transform="translate(185.0,-26.0) rotate(-28.0)"><path d="M0,0 C 19.6,-15.0 50.4,-15.0 70.0,0 C 50.4,15.0 19.6,15.0 0,0 Z" fill="#2F7D34"/><path d="M3.5,0 L63.0,0" stroke="#1C5A23" stroke-width="1.5" opacity="0.5"/></g><g transform="translate(185.0,-26.0) rotate(40.0)"><path d="M0,0 C 17.9,-14.0 46.1,-14.0 64.0,0 C 46.1,14.0 17.9,14.0 0,0 Z" fill="#2F7D34"/><path d="M3.2,0 L57.6,0" stroke="#1C5A23" stroke-width="1.4" opacity="0.5"/></g><circle cx="238.0" cy="-30.0" r="15.0" fill="#C32026"/><ellipse cx="233.5" cy="-34.8" rx="4.5" ry="3.3" fill="#fff" opacity="0.45"/><circle cx="252.0" cy="-16.0" r="16.0" fill="#C32026"/><ellipse cx="247.2" cy="-21.1" rx="4.8" ry="3.5" fill="#fff" opacity="0.45"/><circle cx="236.0" cy="-8.0" r="14.0" fill="#C32026"/><ellipse cx="231.8" cy="-12.5" rx="4.2" ry="3.1" fill="#fff" opacity="0.45"/><circle cx="258.0" cy="-30.0" r="13.0" fill="#C32026"/><ellipse cx="254.1" cy="-34.2" rx="3.9" ry="2.9" fill="#fff" opacity="0.45"/><circle cx="248.0" cy="-44.0" r="12.0" fill="#C32026"/><ellipse cx="244.4" cy="-47.8" rx="3.6" ry="2.6" fill="#fff" opacity="0.45"/></g><text x="60.0" y="96.0" text-anchor="start" font-family="'Arial Black','Helvetica Neue',Arial,sans-serif" font-weight="900" font-size="40.0" fill="#F6D488" letter-spacing="1">NUESTRAS PROPUESTAS</text><circle cx="86.0" cy="168.0" r="22.0" fill="#E3A53C"/><path d="M76.1,168.0 L83.8,175.7 L97.0,159.2" stroke="#fff" stroke-width="4.8" fill="none" stroke-linecap="round" stroke-linejoin="round"/><text x="126.0" y="177.0" text-anchor="start" font-family="'Helvetica Neue',Arial,sans-serif" font-weight="700" font-size="26.0" fill="#fff">Vías para el campo cafetero</text><circle cx="86.0" cy="230.0" r="22.0" fill="#E3A53C"/><path d="M76.1,230.0 L83.8,237.7 L97.0,221.2" stroke="#fff" stroke-width="4.8" fill="none" stroke-linecap="round" stroke-linejoin="round"/><text x="126.0" y="239.0" text-anchor="start" font-family="'Helvetica Neue',Arial,sans-serif" font-weight="700" font-size="26.0" fill="#fff">Incentivos a la renovación del café</text><circle cx="86.0" cy="292.0" r="22.0" fill="#E3A53C"/><path d="M76.1,292.0 L83.8,299.7 L97.0,283.2" stroke="#fff" stroke-width="4.8" fill="none" stroke-linecap="round" stroke-linejoin="round"/><text x="126.0" y="301.0" text-anchor="start" font-family="'Helvetica Neue',Arial,sans-serif" font-weight="700" font-size="26.0" fill="#fff">Mejores beneficiaderos</text><circle cx="86.0" cy="354.0" r="22.0" fill="#E3A53C"/><path d="M76.1,354.0 L83.8,361.7 L97.0,345.2" stroke="#fff" stroke-width="4.8" fill="none" stroke-linecap="round" stroke-linejoin="round"/><text x="126.0" y="363.0" text-anchor="start" font-family="'Helvetica Neue',Arial,sans-serif" font-weight="700" font-size="26.0" fill="#fff">Proyectos productivos para la mujer</text><circle cx="86.0" cy="416.0" r="22.0" fill="#E3A53C"/><path d="M76.1,416.0 L83.8,423.7 L97.0,407.2" stroke="#fff" stroke-width="4.8" fill="none" stroke-linecap="round" stroke-linejoin="round"/><text x="126.0" y="425.0" text-anchor="start" font-family="'Helvetica Neue',Arial,sans-serif" font-weight="700" font-size="26.0" fill="#fff">Defensoría del cafetero</text><g filter="url(#soft)"><circle cx="885" cy="250" r="115" fill="url(#gBadge)"/><circle cx="885" cy="250" r="103.5" fill="none" stroke="#F6D488" stroke-width="5.2"/><circle cx="885" cy="250" r="115" fill="none" stroke="#FFFFFF" stroke-width="5.8"/></g><text x="885.0" y="208.6" text-anchor="middle" font-family="'Helvetica Neue',Arial,sans-serif" font-weight="800" font-size="31.1" fill="#F6D488" letter-spacing="3">PLANCHA</text><text x="885.0" y="312.1" text-anchor="middle" font-family="'Arial Black','Helvetica Neue',Arial,sans-serif" font-weight="900" font-size="166.8" fill="#FFFFFF">2</text><rect x="0" y="540" width="1050" height="60" fill="url(#gGold)" opacity="0.95"/><text x="525.0" y="580.0" text-anchor="middle" font-family="'Arial Black','Helvetica Neue',Arial,sans-serif" font-weight="900" font-size="24.0" fill="#22130C" letter-spacing="1">PLANCHA 2   ·   COMPROMETIDOS CON LOS CAFETEROS</text></svg>