<svg xmlns="http://www.w3.org/2000/svg" xmlns:xlink="http://www.w3.org/1999/xlink" width="1080" height="1080" viewBox="0 0 1080 1080"><defs>
  <linearGradient id="gCream" x1="0" y1="0" x2="0" y2="1"><stop offset="0" stop-color="#F7EFDE"/><stop offset="1" stop-color="#F0E4C8"/></linearGradient>
  <linearGradient id="gEsp" x1="0" y1="0" x2="0" y2="1"><stop offset="0" stop-color="#33200F"/><stop offset="1" stop-color="#20140D"/></linearGradient>
  <linearGradient id="gClay" x1="0" y1="0" x2="1" y2="0"><stop offset="0" stop-color="#B5532E"/><stop offset="1" stop-color="#8C3F20"/></linearGradient>
  <linearGradient id="gGold" x1="0" y1="0" x2="1" y2="0"><stop offset="0" stop-color="#E7C56B"/><stop offset="1" stop-color="#C9962E"/></linearGradient>
  <linearGradient id="gGreen" x1="0" y1="0" x2="0" y2="1"><stop offset="0" stop-color="#3C5A38"/><stop offset="1" stop-color="#2A4128"/></linearGradient>
  <linearGradient id="gScrim" x1="0" y1="0" x2="0" y2="1"><stop offset="0" stop-color="#20140D" stop-opacity="0"/><stop offset="1" stop-color="#20140D" stop-opacity="0.8"/></linearGradient>
  <filter id="soft" x="-40%" y="-40%" width="180%" height="180%"><feDropShadow dx="0" dy="6" stdDeviation="9" flood-color="#20140D" flood-opacity="0.30"/></filter>
  
</defs><rect width="1080" height="1080" fill="url(#gCream)"/><g opacity="0.07"><ellipse cx="1010" cy="70" rx="60" ry="52" fill="none" stroke="#33200F" stroke-width="2"/><ellipse cx="1010" cy="70" rx="92" ry="79" fill="none" stroke="#33200F" stroke-width="2"/><ellipse cx="1010" cy="70" rx="124" ry="107" fill="none" stroke="#33200F" stroke-width="2"/><ellipse cx="1010" cy="70" rx="156" ry="134" fill="none" stroke="#33200F" stroke-width="2"/><ellipse cx="1010" cy="70" rx="188" ry="162" fill="none" stroke="#33200F" stroke-width="2"/><ellipse cx="1010" cy="70" rx="220" ry="189" fill="none" stroke="#33200F" stroke-width="2"/><ellipse cx="1010" cy="70" rx="252" ry="217" fill="none" stroke="#33200F" stroke-width="2"/></g><path d="M 0,793 L 130,772 L 238,790 L 367,763 L 497,785 L 626,767 L 756,790 L 886,771 L 994,788 L 1080,778" fill="none" stroke="#3C5A38" stroke-width="3" opacity="0.5" stroke-dasharray="2400" stroke-dashoffset="2400"><animate attributeName="stroke-dashoffset" from="2400" to="0" dur="2.4s" fill="freeze"/></path><g opacity="0"><animate attributeName="opacity" from="0" to="1" begin="0.3s" dur="1s" fill="freeze"/><text x="540.0" y="230.0" text-anchor="middle" font-family="'Arial Black','Helvetica Neue',Arial,sans-serif" font-weight="900" font-size="76.0" fill="#20140D">COMPROMETIDOS</text><text x="540.0" y="300.0" text-anchor="middle" font-family="'Arial Black','Helvetica Neue',Arial,sans-serif" font-weight="900" font-size="54.0" fill="#B5532E">CON LOS CAFETEROS</text></g><g transform="translate(540.0,560)"><g><animateTransform attributeName="transform" type="scale" values="0.9;1;0.9" dur="3.5s" repeatCount="indefinite" additive="sum"/><circle cx="0" cy="0" r="150" fill="#33200F"/><circle cx="0" cy="0" r="135.0" fill="none" stroke="#E7C56B" stroke-width="2.7"/><circle cx="0" cy="0" r="145.5" fill="none" stroke="#C9962E" stroke-width="4.5"/><defs><path id="sealtopHA" d="M -117.0,0.0 A 117.0,117.0 0 0 1 117.0,0.0"/></defs><text font-family="Georgia,'Times New Roman',serif" font-weight="700" font-size="20.2" fill="#E7C56B" letter-spacing="4.5"><textPath href="#sealtopHA" startOffset="50%" text-anchor="middle">COMPROMETIDOS CON LOS CAFETEROS</textPath></text><g transform="translate(-111.0,3.0) rotate(-20.0)"><ellipse rx="10.5" ry="6.7" fill="#E7C56B"/><path d="M-7.4,-2.7 C -1.1,1.7 1.1,-1.7 7.4,2.7" stroke="#33200F" stroke-width="1.3" fill="none" opacity="0.7"/></g><g transform="translate(111.0,3.0) rotate(20.0)"><ellipse rx="10.5" ry="6.7" fill="#E7C56B"/><path d="M-7.4,-2.7 C -1.1,1.7 1.1,-1.7 7.4,2.7" stroke="#33200F" stroke-width="1.3" fill="none" opacity="0.7"/></g><g transform="translate(0.0,-51.0) rotate(0.0)"><ellipse rx="19.5" ry="12.5" fill="#E7C56B"/><path d="M-13.6,-5.1 C -2.0,3.1 2.0,-3.1 13.6,5.1" stroke="#33200F" stroke-width="2.3" fill="none" opacity="0.7"/></g><text x="0.0" y="-7.5" text-anchor="middle" font-family="'Helvetica Neue',Arial,sans-serif" font-weight="800" font-size="24.0" fill="#F7EFDE" letter-spacing="2">PLANCHA</text><text x="0.0" y="82.5" text-anchor="middle" font-family="'Arial Black','Helvetica Neue',Arial,sans-serif" font-weight="900" font-size="138.0" fill="#E7C56B">2</text><text x="0.0" y="120.0" text-anchor="middle" font-family="'Helvetica Neue',Arial,sans-serif" font-weight="700" font-size="11.2" fill="#E7C56B" letter-spacing="2">ELECCIONES CAFETERAS</text></g></g><g opacity="0"><animate attributeName="opacity" from="0" to="1" begin="1.1s" dur="1s" fill="freeze"/><rect x="505" y="785" width="70" height="70" rx="10" fill="none" stroke="#B5532E" stroke-width="7.0"/><path d="M525,807 L558,838 M558,805 L523,840" stroke="#B5532E" stroke-width="9.1" stroke-linecap="round"/><text x="540.0" y="920.0" text-anchor="middle" font-family="'Arial Black','Helvetica Neue',Arial,sans-serif" font-weight="900" font-size="34.0" fill="#20140D" letter-spacing="1">MARCA LA PLANCHA 2</text></g><g><g transform="translate(540.0,-40.0) rotate(25.0)"><ellipse rx="16.0" ry="10.2" fill="#C9962E"/><path d="M-11.2,-4.2 C -1.6,2.6 1.6,-2.6 11.2,4.2" stroke="#33200F" stroke-width="1.9" fill="none" opacity="0.7"/></g><animateTransform attributeName="transform" type="translate" values="0,0; 0,1120" dur="2.6s" begin="0.6s" repeatCount="indefinite"/></g></svg>